<?xml version="1.0" encoding="UTF-8" standalone="no"?>
<svg
   xmlns:dc="http://purl.org/dc/elements/1.1/"
   xmlns:cc="http://creativecommons.org/ns#"
   xmlns:rdf="http://www.w3.org/1999/02/22-rdf-syntax-ns#"
   xmlns:svg="http://www.w3.org/2000/svg"
   xmlns="http://www.w3.org/2000/svg"
   xmlns:sodipodi="http://sodipodi.sourceforge.net/DTD/sodipodi-0.dtd"
   xmlns:inkscape="http://www.inkscape.org/namespaces/inkscape"
   width="124"
   height="24"
   version="1.1"
   id="svg4"
   sodipodi:docname="f-logo.svg"
   inkscape:version="0.92.4 (5da689c313, 2019-01-14)">
  <metadata
     id="metadata10">
    <rdf:RDF>
      <cc:Work
         rdf:about="">
        <dc:format>image/svg+xml</dc:format>
        <dc:type
           rdf:resource="http://purl.org/dc/dcmitype/StillImage" />
        <dc:title></dc:title>
      </cc:Work>
    </rdf:RDF>
  </metadata>
  <defs
     id="defs8" />
  <sodipodi:namedview
     pagecolor="#ffffff"
     bordercolor="#666666"
     borderopacity="1"
     objecttolerance="10"
     gridtolerance="10"
     guidetolerance="10"
     inkscape:pageopacity="0"
     inkscape:pageshadow="2"
     inkscape:window-width="1366"
     inkscape:window-height="745"
     id="namedview6"
     showgrid="false"
     inkscape:zoom="2.7983871"
     inkscape:cx="2.5014409"
     inkscape:cy="12"
     inkscape:window-x="-8"
     inkscape:window-y="-8"
     inkscape:window-maximized="1"
     inkscape:current-layer="svg4" />
  <path
     d="m 5.8569995,18.708 c 1.638,0 2.995,-0.36 4.07,-1.08 C 11.002,16.907 11.54,15.859 11.54,14.484 11.457,12.629 10.076,11.238 7.3959995,10.311 l -1.44,-0.5970004 c -0.314,-0.1 -0.538,-0.198 -0.67,-0.298 a 0.45,0.45 0 0 1 -0.198,-0.373 c 0,-0.414 0.273,-0.62 0.819,-0.62 0.678,0 1.182,0.347 1.513,1.043 l 3.6980005,-1.044 c -0.893,-2.22 -2.6140005,-3.329 -5.1620005,-3.329 -1.522,0 -2.788,0.398 -3.797,1.193 -1.009,0.794 -1.51399996,1.83 -1.51399996,3.104 0,0.398 0.058,0.7660004 0.174,1.1060004 0.116,0.34 0.28999996,0.638 0.52099996,0.894 0.232,0.257 0.455,0.48 0.67,0.671 0.215,0.19 0.488,0.369 0.82,0.534 0.33,0.166 0.582,0.286 0.756,0.36 0.174,0.075 0.41,0.162 0.707,0.261 l 0.422,0.15 1.49,0.546 c 0.363,0.133 0.6,0.244 0.707,0.335 a 0.449,0.449 0 0 1 0.16,0.36 c 0,0.431 -0.404,0.647 -1.215,0.647 -1.191,0 -1.903,-0.53 -2.134,-1.59 L -4.6397695e-7,14.509 C 0.46299954,17.309 2.4159995,18.709 5.8569995,18.709 Z m 11.6360005,0 c 1.638,0 2.845,-0.63 3.623,-1.888 v 1.615 h 5.112 V 5.3659996 H 21.116 V 12.522 c 0,1.474 -0.505,2.21 -1.514,2.21 -1.026,0 -1.539,-0.736 -1.539,-2.21 V 5.3659996 H 12.951 V 13.019 c 0,3.793 1.514,5.69 4.542,5.69 z M 33.596,18.435 V 11.28 c 0,-1.4750004 0.504,-2.2120004 1.513,-2.2120004 1.026,0 1.54,0.737 1.54,2.2120004 v 7.155 h 5.111 v -7.652 c 0,-3.7930004 -1.513,-5.6900004 -4.541,-5.6900004 -1.638,0 -2.846,0.63 -3.623,1.888 v -1.615 H 28.483 V 18.435 Z m 15.383,0 V 11.28 c 0,-1.4750004 0.504,-2.2120004 1.514,-2.2120004 1.025,0 1.538,0.737 1.538,2.2120004 v 7.155 h 5.113 v -7.652 c 0,-3.7930004 -1.514,-5.6900004 -4.542,-5.6900004 -1.638,0 -2.846,0.63 -3.623,1.888 v -1.615 H 43.866 V 18.435 Z M 64.958,24 73.247,5.3659996 H 67.91 L 65.378,12.05 63.12,5.3659996 H 57.536 L 62.971,17.168 59.944,24 Z m 13.67,-5.292 c 1.638,0 2.995,-0.36 4.07,-1.08 1.076,-0.721 1.614,-1.769 1.614,-3.144 -0.083,-1.855 -1.465,-3.246 -4.145,-4.173 l -1.44,-0.5970004 c -0.314,-0.1 -0.537,-0.198 -0.67,-0.298 a 0.45,0.45 0 0 1 -0.198,-0.373 c 0,-0.414 0.273,-0.62 0.819,-0.62 0.678,0 1.183,0.347 1.514,1.043 l 3.698,-1.044 c -0.894,-2.22 -2.614,-3.329 -5.162,-3.329 -1.522,0 -2.788,0.398 -3.797,1.193 -1.01,0.795 -1.514,1.83 -1.514,3.105 0,0.398 0.058,0.7660004 0.173,1.1060004 0.116,0.34 0.29,0.638 0.522,0.894 0.231,0.257 0.455,0.48 0.67,0.671 0.215,0.19 0.488,0.369 0.819,0.534 0.33,0.166 0.583,0.286 0.757,0.36 0.173,0.075 0.41,0.162 0.707,0.261 l 0.422,0.15 1.489,0.546 c 0.364,0.133 0.6,0.244 0.707,0.335 a 0.449,0.449 0 0 1 0.161,0.36 c 0,0.431 -0.405,0.647 -1.216,0.647 -1.19,0 -1.902,-0.53 -2.134,-1.59 l -3.723,0.844 c 0.464,2.8 2.416,4.2 5.857,4.2 z m 9.8,-14.1370004 c 0.91,0 1.613,-0.215 2.11,-0.646 0.495,-0.43 0.744,-0.977 0.744,-1.64 0,-0.678 -0.24,-1.23 -0.72,-1.65099996 -0.48,-0.424 -1.191,-0.6340000031124 -2.134,-0.6340000031124 -0.943,0 -1.655,0.2110000031124 -2.135,0.6340000031124 -0.48,0.42199996 -0.72,0.97299996 -0.72,1.65199996 0,0.662 0.249,1.209 0.745,1.64 0.497,0.43 1.2,0.645 2.11,0.645 z M 90.984,18.435 V 5.3659996 H 85.87 V 18.435 h 5.113 z m 7.74,0.273 c 1.737,0 2.977,-0.63 3.722,-1.888 v 1.615 h 5.112 V 0.47199964 h -5.112 V 7.0059996 c -0.745,-1.275 -1.985,-1.913 -3.723,-1.913 -1.753,0 -3.214,0.642 -4.38,1.926 -1.166,1.283 -1.75,2.91 -1.75,4.8820004 0,1.97 0.584,3.598 1.75,4.882 1.166,1.283 2.627,1.925 4.38,1.925 z m 1.39,-3.9 c -0.729,0 -1.312,-0.274 -1.75,-0.82 -0.439,-0.547 -0.658,-1.243 -0.658,-2.087 0,-0.845 0.215,-1.54 0.645,-2.0870004 0.447,-0.547 1.034,-0.82 1.762,-0.82 0.728,0 1.311,0.273 1.75,0.82 C 102.301,10.36 102.52,11.056 102.52,11.901 c 0,0.844 -0.219,1.54 -0.657,2.087 -0.439,0.546 -1.022,0.82 -1.75,0.82 z m 16.698,3.9 c 2.597,0 4.624,-0.754 6.08,-2.26 l -2.11,-2.833 c -1.042,0.845 -2.217,1.267 -3.524,1.267 -0.992,0 -1.799,-0.224 -2.42,-0.67 -0.62,-0.448 -0.93,-0.879 -0.93,-1.293 h 9.604 c 0.083,-0.298 0.124,-0.687 0.124,-1.167 0,-2.0540004 -0.674,-3.6770004 -2.022,-4.8700004 -1.349,-1.193 -3.073,-1.789 -5.175,-1.789 -2.25,0 -4.028,0.671 -5.335,2.013 -1.307,1.341 -1.961,2.9560004 -1.961,4.8440004 0,1.938 0.69,3.549 2.072,4.833 1.382,1.283 3.247,1.925 5.597,1.925 z m 2.208,-8.149 h -5.112 c 0.033,-0.6130004 0.298,-1.0800004 0.794,-1.4040004 0.496,-0.323 1.084,-0.484 1.762,-0.484 0.678,0 1.266,0.165 1.762,0.497 0.497,0.331 0.761,0.795 0.794,1.3910004 z"
     id="path2"
     inkscape:connector-curvature="0"
     style="fill:#25564b;fill-rule:nonzero;fill-opacity:1" />
</svg>
